<?xml version="1.0" standalone="no"?>
<!DOCTYPE svg PUBLIC "-//W3C//DTD SVG 20010904//EN"
 "http://www.w3.org/TR/2001/REC-SVG-20010904/DTD/svg10.dtd">
<svg version="1.0" xmlns="http://www.w3.org/2000/svg"
 width="580.000000pt" height="580.000000pt" viewBox="0 0 580.000000 580.000000"
 preserveAspectRatio="xMidYMid meet">
<metadata>
Created by potrace 1.14, written by Peter Selinger 2001-2017
</metadata>
<g transform="translate(0.000000,580.000000) scale(0.100000,-0.100000)"
fill="#000000" stroke="none">
<path d="M3415 4164 c-37 -44 -56 -79 -62 -115 -3 -21 4 -35 33 -63 20 -20 41
-36 46 -36 5 0 6 -4 3 -10 -3 -5 0 -10 8 -10 8 0 22 -9 32 -20 14 -16 21 -17
32 -8 26 21 46 72 46 116 0 38 -6 49 -43 87 -28 28 -42 52 -42 69 0 35 -17 32
-53 -10z"/>
<path d="M909 4086 c-2 -2 -24 -6 -48 -10 -102 -14 -183 -98 -214 -223 -12
-48 -13 -160 -3 -243 4 -36 11 -91 21 -170 3 -25 8 -61 10 -80 2 -19 7 -54 10
-77 3 -24 7 -62 10 -85 3 -24 8 -62 11 -84 5 -41 5 -42 -31 -54 -20 -7 -44
-13 -53 -15 -9 -2 -17 -4 -17 -5 0 -1 -9 -3 -20 -5 -21 -3 -56 -11 -102 -21
-16 -4 -102 -8 -193 -10 -91 -2 -175 -5 -186 -7 -24 -3 -62 -26 -88 -52 -18
-18 -21 -45 -5 -45 5 0 8 4 4 9 -3 6 5 15 17 22 13 7 26 16 29 21 6 9 68 21
104 20 32 -1 190 -11 195 -13 3 -1 8 -1 11 -1 4 1 40 4 80 7 86 6 124 11 159
20 14 4 34 8 45 9 11 2 28 6 38 11 24 10 27 6 32 -51 3 -27 7 -60 10 -74 3
-14 8 -45 11 -70 3 -25 7 -56 10 -70 2 -14 6 -43 9 -65 12 -95 16 -121 20
-145 2 -14 7 -50 11 -80 6 -53 9 -73 18 -122 8 -46 19 -134 19 -155 1 -13 4
-23 7 -23 4 0 7 -6 7 -12 0 -7 4 -35 8 -63 10 -63 13 -88 14 -98 1 -5 5 -6 9
-3 4 3 6 31 4 63 -2 32 -4 77 -5 100 -1 24 -4 43 -7 43 -3 0 -5 15 -4 33 1 17
-2 64 -7 102 -4 39 -10 93 -13 120 -3 28 -8 70 -11 95 -3 25 -7 68 -10 95 -2
28 -6 70 -9 95 -16 129 -28 239 -30 280 -2 36 -2 37 73 70 42 19 79 39 83 44
4 6 8 7 8 3 0 -5 14 3 32 18 18 15 42 31 55 36 13 5 23 13 23 19 0 5 5 10 11
10 6 0 38 28 72 63 66 66 128 137 121 137 -2 0 4 17 15 38 121 237 -5 557
-249 630 -39 12 -116 23 -121 18z m104 -92 c94 -30 149 -83 202 -191 31 -61
36 -82 36 -145 1 -101 -2 -128 -13 -128 -6 0 -8 -6 -5 -14 3 -8 -1 -20 -9 -27
-8 -6 -12 -14 -10 -16 7 -7 -54 -103 -65 -103 -5 0 -9 -6 -9 -13 0 -36 -313
-260 -334 -239 -3 3 -6 1 -6 -5 0 -13 -26 -12 -27 1 -2 25 -13 124 -18 166 -4
25 -9 65 -11 90 -2 25 -7 59 -9 75 -3 17 -6 48 -9 71 -2 23 -7 70 -11 105 -17
143 -5 227 41 300 20 32 68 73 86 74 3 0 9 3 12 6 13 13 111 9 159 -7z"/>
<path d="M4054 4062 c-16 -8 -32 -20 -36 -26 -4 -6 -8 -7 -8 -3 0 10 -60 -54
-60 -64 0 -19 14 -39 26 -39 8 0 14 -3 14 -7 0 -5 21 -9 48 -10 83 -4 127 -18
161 -52 61 -61 70 -125 25 -172 -15 -16 -30 -27 -32 -24 -3 2 -23 -9 -45 -25
-23 -17 -44 -30 -49 -30 -4 0 -31 -14 -60 -31 -29 -17 -55 -31 -58 -30 -3 0
-48 -16 -100 -36 -52 -20 -103 -36 -112 -36 -10 1 -18 -3 -18 -8 0 -5 -6 -9
-12 -8 -12 2 -64 -5 -123 -18 -89 -18 -355 -24 -450 -9 -27 4 -59 9 -70 11
-11 2 -26 4 -33 4 -7 1 -10 6 -6 13 5 8 0 9 -15 5 -31 -8 -105 20 -176 67 -58
38 -112 86 -97 86 4 0 2 4 -4 8 -13 9 -49 77 -62 117 -12 40 -7 156 8 165 8 5
9 10 1 14 -18 12 -45 -56 -47 -122 -6 -152 81 -283 239 -361 34 -17 54 -30 45
-31 -10 0 -18 -4 -18 -8 0 -7 -77 -43 -104 -49 -40 -8 -57 -13 -65 -18 -10 -6
-126 -8 -151 -2 -47 10 -130 41 -130 48 0 5 -5 9 -11 9 -16 0 -69 47 -62 54 4
3 2 6 -4 6 -12 0 -53 65 -58 92 -2 10 -7 23 -11 30 -4 7 -9 37 -10 68 -1 30
-2 63 -3 72 -1 9 -8 24 -17 32 -8 9 -12 16 -7 16 4 0 -1 6 -11 12 -26 15 -86
28 -86 18 0 -4 -9 -10 -20 -13 -11 -3 -28 -24 -39 -47 -20 -46 -19 -47 -41 40
-16 64 -33 100 -47 101 -7 1 -19 2 -25 3 -7 1 -24 -4 -38 -12 -21 -11 -25 -20
-22 -46 2 -18 9 -33 16 -33 8 0 11 9 8 22 -2 15 2 24 14 29 26 10 42 -13 48
-64 3 -25 7 -56 11 -70 3 -14 7 -45 10 -70 2 -25 6 -54 8 -65 3 -12 8 -46 12
-78 4 -31 10 -57 14 -58 38 -5 52 -5 56 1 2 4 5 37 7 74 1 37 5 69 9 72 4 2 6
15 3 29 -2 13 0 26 5 30 6 3 8 13 6 23 -2 10 5 29 16 43 16 20 20 22 29 9 5
-8 10 -28 10 -45 3 -136 46 -229 141 -310 13 -11 27 -22 31 -23 5 -1 23 -10
40 -20 33 -19 72 -31 118 -38 44 -7 188 -2 198 6 1 1 5 3 10 5 8 2 36 13 67
24 11 5 24 9 29 9 5 0 12 4 15 9 14 18 98 70 111 67 43 -7 70 -13 77 -17 13
-8 113 -19 185 -21 38 0 68 -5 68 -9 0 -5 3 -6 8 -4 4 3 63 8 131 11 68 4 127
9 131 11 4 3 25 7 45 10 21 2 45 7 54 9 9 3 27 7 41 10 41 7 174 53 234 80 31
14 58 26 61 26 12 0 189 108 235 144 30 24 64 48 75 54 11 6 16 12 11 12 -5 0
3 9 17 21 37 29 53 91 36 144 -14 41 -58 95 -79 95 -6 0 -8 5 -5 10 3 6 1 10
-5 10 -6 0 -31 14 -55 30 -24 17 -50 30 -57 30 -8 0 -19 5 -24 10 -18 18 -108
19 -140 2z"/>
<path d="M4437 4067 c-18 -15 -28 -43 -19 -52 4 -4 7 -12 7 -18 0 -7 8 -13 19
-15 14 -3 16 -1 8 13 -5 10 -7 26 -5 35 6 23 40 15 48 -11 6 -19 9 -34 20
-124 3 -22 8 -56 11 -75 3 -19 6 -43 6 -52 -1 -10 3 -18 7 -18 4 0 8 -15 9
-32 0 -36 8 -73 16 -87 6 -9 56 -3 57 8 0 3 2 33 4 66 5 74 10 110 24 153 5
17 7 32 4 32 -3 0 0 7 7 15 27 32 35 16 44 -80 3 -27 7 -57 9 -65 2 -8 7 -27
12 -42 4 -16 11 -28 16 -28 5 0 8 -3 7 -7 -3 -12 23 -56 44 -74 10 -9 18 -21
18 -28 0 -6 5 -11 10 -11 12 0 73 -41 78 -52 2 -5 11 -8 21 -8 9 0 21 -4 27
-9 10 -11 46 -19 114 -27 25 -3 50 -7 57 -9 7 -2 15 0 18 6 4 5 10 7 14 5 4
-3 33 1 64 8 31 7 59 11 62 8 3 -3 5 0 5 6 0 7 3 11 8 10 12 -2 44 13 87 42
22 15 43 27 46 26 8 -1 88 87 89 97 0 8 -68 -29 -80 -43 -3 -3 -32 -20 -65
-37 -64 -34 -167 -62 -209 -57 -14 1 -26 -2 -26 -9 0 -8 -3 -8 -11 0 -6 6 -18
9 -25 6 -8 -3 -22 -2 -31 2 -10 4 -27 9 -39 10 -37 6 -112 46 -150 82 -60 57
-112 172 -92 207 5 9 5 16 0 16 -4 0 -7 13 -6 29 4 61 -40 113 -96 114 -39 1
-80 -26 -80 -53 0 -5 -5 -10 -11 -10 -5 0 -8 -4 -5 -8 2 -4 1 -14 -5 -22 -9
-16 -9 -16 -13 39 0 11 -4 23 -8 27 -5 4 -8 16 -8 26 0 58 -73 107 -113 75z"/>
<path d="M1494 3833 c-84 -48 -121 -104 -129 -195 -1 -10 -4 -21 -8 -24 -3 -4
-2 -14 3 -24 5 -10 7 -19 5 -22 -6 -6 13 -75 33 -118 9 -19 31 -49 50 -67 87
-81 214 -36 269 94 19 45 32 55 34 26 0 -10 2 -25 4 -33 2 -8 5 -27 8 -41 3
-15 12 -40 21 -56 59 -115 221 -60 230 77 1 14 5 30 9 36 3 6 1 19 -6 28 -11
15 -13 15 -15 -8 -5 -65 -55 -135 -102 -143 -20 -3 -60 7 -58 16 1 3 -4 20
-11 36 -7 17 -14 53 -16 80 -3 28 -7 73 -10 100 -4 28 -7 74 -8 102 -1 29 -5
53 -9 53 -4 0 -5 6 -2 14 7 17 -20 28 -52 20 -20 -5 -24 -12 -25 -48 -2 -98
-42 -222 -91 -278 -31 -36 -76 -53 -103 -38 -72 39 -116 216 -70 286 8 13 12
24 8 24 -12 0 41 52 69 66 36 19 108 18 136 -2 27 -19 41 -12 22 11 -38 46
-131 59 -186 28z"/>
<path d="M4507 2993 c-3 -5 -5 -75 -5 -156 0 -106 3 -147 12 -144 6 2 12 28
13 58 1 30 2 65 3 79 2 56 64 86 101 49 16 -16 19 -33 19 -104 0 -50 4 -85 10
-85 11 0 12 10 12 109 0 75 -15 108 -53 116 -32 7 -70 -2 -81 -19 -8 -12 -11
9 -8 60 1 30 -13 53 -23 37z"/>
<path d="M5394 2992 c-6 -4 -10 -23 -9 -42 3 -47 0 -50 -39 -38 -73 23 -134
-40 -123 -125 8 -61 36 -91 86 -95 23 -2 48 1 55 7 9 7 16 7 24 -1 6 -6 14 -9
17 -6 3 3 4 73 3 156 -2 108 -6 149 -14 144z m-25 -118 c22 -20 20 -118 -4
-143 -40 -46 -109 -13 -117 55 -10 87 65 142 121 88z"/>
<path d="M3789 2953 c-3 -78 -4 -239 -1 -249 4 -14 96 -17 136 -4 53 17 75 90
37 124 -18 16 -18 19 -4 45 36 62 -13 111 -112 111 -53 0 -55 -1 -56 -27z
m128 -7 c25 -8 34 -26 26 -54 -6 -25 -45 -41 -95 -40 l-38 1 0 47 c0 26 2 49
5 51 7 7 76 4 102 -5z m17 -129 c23 -17 24 -63 3 -84 -10 -11 -35 -17 -69 -17
l-53 -1 -3 58 -3 57 54 0 c29 0 61 -6 71 -13z"/>
<path d="M4351 2961 c-15 -27 -101 -251 -101 -262 0 -26 21 -2 38 44 19 50 21
52 58 54 70 2 78 -3 98 -57 12 -34 22 -48 28 -42 11 11 -90 282 -104 282 -4 0
-12 -8 -17 -19z m43 -103 c-2 -4 0 -9 6 -13 22 -13 8 -23 -35 -23 -25 -1 -45
0 -45 2 0 2 6 19 14 37 7 19 16 43 20 54 7 18 9 16 26 -15 10 -19 16 -38 14
-42z"/>
<path d="M4767 2914 c-4 -4 -17 -7 -29 -8 -22 -1 -23 -5 -25 -103 -2 -59 1
-105 7 -108 12 -7 11 -13 19 143 1 30 36 63 58 55 35 -12 43 -35 43 -120 0
-49 4 -83 10 -83 6 0 10 6 11 13 0 6 2 46 4 86 2 63 6 78 25 93 12 10 26 18
31 18 18 0 50 -42 49 -63 -5 -59 1 -147 10 -147 14 0 13 163 -1 194 -19 41
-87 45 -116 7 -7 -9 -13 -11 -13 -5 0 20 -68 43 -83 28z"/>
<path d="M5063 2900 c-62 -37 -64 -151 -4 -197 41 -32 131 -2 144 47 7 29 -17
25 -31 -5 -22 -49 -102 -42 -122 11 -6 15 -8 29 -5 33 3 3 41 6 83 6 72 0 77
1 80 23 4 30 -33 88 -61 96 -36 9 -50 7 -84 -14z m96 -24 c27 -24 34 -56 13
-57 -50 -3 -123 -1 -128 3 -9 10 18 56 39 65 29 13 53 10 76 -11z"/>
<path d="M4016 2823 c20 -48 39 -98 44 -109 10 -25 -21 -84 -45 -84 -8 0 -15
-4 -15 -10 0 -18 36 -10 56 13 24 26 119 265 110 274 -11 11 -25 -11 -48 -77
-37 -103 -38 -103 -74 -9 -18 48 -39 85 -47 87 -12 2 -7 -18 19 -85z"/>
</g>
</svg>
